<svg width="640" height="640" viewBox="0 0 640 640" fill="none" xmlns="http://www.w3.org/2000/svg">
<g clip-path="url(#clip0_1_5)">
<path d="M0 0H640V640H0V0Z" fill="black"/>
<path d="M207.231 208.042C221.655 193.074 237.229 177.957 251.967 163.224L335.228 79.9616C335.203 94.8819 334.953 110.518 335.294 125.376C335.1 128.38 334.994 169.54 335.431 170.812C335.091 173.628 335.219 178.697 335.213 181.676L335.203 200.993L335.197 264.213V323.737L335.2 341.559C335.2 344.269 335.075 349.272 335.384 351.813C334.947 355.197 335.178 364.413 335.209 368.406C335.291 377.847 335.069 387.556 335.238 396.959L335.266 441.913L303.185 474.013C303.562 449.572 303.228 424.272 303.226 399.775L303.189 292.977C292.987 303.601 281.688 314.472 271.234 325.003C271.441 310.129 271.237 294.745 271.232 279.83C281.039 269.357 293.912 258.107 303.199 247.627C303.502 237.757 303.232 226.27 303.232 216.306L303.213 157.151L239.258 221.168C238.796 234.428 239.179 250.135 239.178 263.528L239.176 345.147L239.179 469.159C239.18 491.969 238.983 515.103 239.268 537.894C228.967 548.578 217.739 559.459 207.2 569.994L207.231 208.042Z" fill="#FED801"/>
<path d="M367.203 293.161C380.731 307.064 394.919 320.947 408.659 334.681L423.466 349.481C425.669 351.681 429.053 355.294 431.241 357.175L431.234 492.997C424.931 486.069 416.437 478.047 409.725 471.347L370.947 432.581L346.75 408.363C344.584 406.194 337.359 398.631 335.238 396.959C335.069 387.556 335.291 377.847 335.209 368.406C335.178 364.413 334.947 355.197 335.384 351.813C356.631 372.981 377.919 394.766 399.316 415.691C399.069 401.513 399.844 384.184 399.216 370.406C388.775 359.8 377.872 348.759 367.228 338.381C367.225 323.428 367.406 308.079 367.203 293.161Z" fill="#FEFEFE"/>
<path d="M335.294 125.376L401.128 191.156L421.131 211.162C423.712 213.741 428.675 219.032 431.234 221.143L431.231 312.031C428.15 308.468 423.841 304.41 420.412 300.985L399.312 279.908C399.119 265.192 399.681 249.151 399.228 234.651L335.431 170.812C334.994 169.54 335.1 128.38 335.294 125.376Z" fill="#FEFEFE"/>
</g>
<defs>
<clipPath id="clip0_1_5">
<rect width="640" height="640" fill="white"/>
</clipPath>
</defs>
</svg>
