<svg xmlns="http://www.w3.org/2000/svg" version="1.1" xmlns:xlink="http://www.w3.org/1999/xlink" xmlns:svgjs="http://svgjs.dev/svgjs" width="32" height="32"><svg width="32" height="32" viewBox="0 0 32 32" fill="none" xmlns="http://www.w3.org/2000/svg">
<g clip-path="url(#clip0_2711_144)">
<path d="M0 8C0 3.58172 3.58172 0 8 0H24C28.4183 0 32 3.58172 32 8V24C32 28.4183 28.4183 32 24 32H8C3.58172 32 0 28.4183 0 24V8Z" fill="black"></path>
<path d="M11.96 26.9L10.36 28.5V10.4L16.76 4V6.26V8.53V17.58V19.84V22.1L15.16 23.7V14.65L13.56 16.25V13.99L15.16 12.39V7.86L11.96 11.06V26.9Z" fill="#FFD700"></path>
<path d="M16.76 17.5798L19.96 20.7798V18.5198L18.36 16.9198V14.6598L21.56 17.8598V24.6398L16.76 19.8398V17.5798V8.52977V6.25977L21.56 11.0598V15.5898L19.96 13.9898V11.7298L16.76 8.52977V17.5798Z" fill="white"></path>
</g>
<defs>
<clipPath id="SvgjsClipPath1001">
<path d="M0 8C0 3.58172 3.58172 0 8 0H24C28.4183 0 32 3.58172 32 8V24C32 28.4183 28.4183 32 24 32H8C3.58172 32 0 28.4183 0 24V8Z" fill="white"></path>
</clipPath>
</defs>
</svg><style>@media (prefers-color-scheme: light) { :root { filter: none; } }
@media (prefers-color-scheme: dark) { :root { filter: none; } }
</style></svg>